# xmcd
#
# Track frame offsets:
#	150
#	11562
#	47385
#	77464
#	115809
#	129793
#	159817
#
# Disc length: 2383 seconds
#
# Revision: 1
# Processed by: cddbd v1.5.2PL0 Copyright (c) Steve Scherf et al.
# Submitted via: audiograbber 1.83.01
#
DISCID=3b094d07
DTITLE=Grateful Dead - 82-09-14 University of Virginia, Charlottesville VA
DYEAR=1900
DGENRE=
TTITLE0=Space
TTITLE1=Iko Iko
TTITLE2=Truckin'
TTITLE3=Black Peter
TTITLE4=I Need A Miracle
TTITLE5=Bertha
TTITLE6=Johnny B Goode
EXTD=
EXTT0=
EXTT1=
EXTT2=
EXTT3=
EXTT4=
EXTT5=
EXTT6=
PLAYORDER=
